<svg id="Lager_1" data-name="Lager 1" xmlns="http://www.w3.org/2000/svg" viewBox="0 0 1417.14 1878.9"><title>logga_gymnasiearbete</title><path d="M1993.94,705.06c59.55,36.5,106.25,81,135.3,143.13a157.35,157.35,0,0,1,14.67,64.34c.83,42.82-20.61,72.9-61.36,86.84-45.48,15.55-91.88,22.81-139.93,14.29-8.12-1.44-16.54-1.16-26.91-1.81,7.93,26.3,15.85,50.69,18,76.67a194,194,0,0,1-2.74,50c-10.89,61.15-51.39,94.19-113.93,94.6-21.19.14-42.39,0-65,0,18.28,30.66,23.57,64.19,23.46,98.87,0,15-6.08,22.56-22.82,19.71-101.9-17.33-196.76-50.72-277-118.68-29.45-25-53.6-54.38-75.87-85.74-11.62-16.35-9.19-27.64,4.94-41.39,36.83-35.83,80.88-35.48,126.72-28.43,9,1.37,17.64,4.5,25.62,6.6,0-19.19,0-37.8,0-56.4.23-107.27,88.64-179.06,192.35-155.2,17.67,4.07,23.43,2.46,25.28-17.63,4.84-52.57,22.66-100,67.33-132.79,9.2-6.77,10.69-13.7,5.51-23.51-7.86-14.89-15.61-29.89-22.53-45.23-10.56-23.42-5-39.09,18.41-47.55,39.57-14.26,79.57-27.38,119.66-40.12,7.71-2.45,16.85-2.2,25-1.07,19.26,2.65,26.72,22.21,15.11,38-5.66,7.67-13.28,12.34-22.33,15.3-26.16,8.58-52,18-78.38,26-10.45,3.16-18,6.19-11.45,18.39,5.27,9.85,6.42,26.28,25,18a20.51,20.51,0,0,0,4.16-1.92c44.08-33.35,95.42-27.43,145.73-27,18.53.17,31.88,7.7,31.77,28-.11,19.68-13.6,25.66-31,25.66Zm16.16,213.62c43.54.19,65.92-24.62,61.78-68.49-4-41.87-39.19-83.23-79.69-94.87-29.38-8.44-56-2-75.81,19.31-19.69,21.09-21.12,47.93-10.51,75.23C1922,891.24,1962.74,918.47,2010.1,918.68Z" transform="translate(-726.79 -561.9)"/><path d="M1139.26,683.83c1.41-11.47,2.59-30.64,6.3-49.32,8.58-43.25,42.49-67.86,86.5-71.13,59.47-4.42,109,20.31,157.48,48.24,87.79,50.53,164.52,114.41,226.56,195,19.08,24.79,18.61,25-9.17,39.2-14.34,7.34-29.29,14.74-39.46,27.29-12.31,15.18-20.2,13.12-31.84-1.11-40.28-49.28-83.76-95.61-132.84-136.37-30.12-25-61.23-48.53-97.66-64-18-7.61-38.42-15.9-54.9-4.62-16.81,11.51-11,32.58-8.23,51.13,19.72,130.86,102.4,215.75,232.53,236.63,19.61,3.15,29.12,8.89,22.92,31-4.28,15.25-5.45,31.72-5.65,47.67-.17,13.86-5.29,17.58-18,15.11-138.87-26.89-248.26-93.8-307.57-227.76C1148.05,779.89,1139.82,736.36,1139.26,683.83Z" transform="translate(-726.79 -561.9)"/><path d="M1687,1536.55c-83.73-11.28-163.47-35.78-235.69-81.73-43.48-27.67-82.18-60.85-115.49-100.4-7.47-8.87-11-16.58-9.1-28.61,5.33-33.19,11.35-66.21,20.3-98.62,1.52-5.48,2.26-13.06,9.15-14.89,7.43-2,10.54,5,14,9.63,82.17,108.09,196.25,162,324.76,191.25,15.54,3.53,31.71,4.86,47.67,5.87,15.1,1,17.68,7.52,13.77,21-8.13,28.16-20.47,54.26-35.35,79.36C1713.33,1532.37,1704.2,1541.74,1687,1536.55Z" transform="translate(-726.79 -561.9)"/><path d="M1759,787.94c-5.39,17-10.54,33.77-16.09,50.41-1.25,3.74-4.46,5.47-8.9,5.72-16.58.92-50.23-19.62-57.65-34.82-22.56-46.17-45.82-92-88.12-124-15.9-12-33-22.3-54.15-22.37-6.33,0-11.8-2.33-17.07-5.85-24.12-16.18-47.79-33.13-72.78-47.84-17.41-10.25-12.17-18.44-.38-27,35.7-26,75.29-23.87,113.83-10.6,66.14,22.78,114.2,69.51,154.37,125.07,17.07,23.61,31.81,48.63,41.68,76.25C1755.53,777.82,1757.24,782.86,1759,787.94Z" transform="translate(-726.79 -561.9)"/><path d="M1840.8,1505a367.51,367.51,0,0,0-295.08-210.23q-17.49-1.8-35.45-1.93c-78-.51-149.77,22.2-209,61.61-99.2,65.92-163.42,178.6-163.27,307.47.25,204,160.34,367.43,367.2,368.51,208.51,1.09,370.63-166.16,369.93-369.58A366.12,366.12,0,0,0,1840.8,1505Zm-334.68,465.92c-168.18,3.34-310.76-137.88-309.83-310.47.61-113.59,61.12-212.27,152.1-266a311.69,311.69,0,0,1,160-43,308.58,308.58,0,0,1,292.44,210.47,314.67,314.67,0,0,1,16.23,99.55C1817.47,1833.25,1676.87,1974.29,1506.12,1970.93Z" transform="translate(-726.79 -561.9)"/><path d="M818.28,2440.64c-10.29-1.3-19-6.42-27.14-12.42-23.2-17.09-43.83-36.65-58-62.21-.81-1.47-1.57-3-2.25-4.52-6.22-14.15-6.08-16.69,5.19-27.08,38.11-35.15,76.49-70,114.68-105.06,30.36-27.86,60.56-55.88,90.9-83.76q57.89-53.21,115.86-106.31c24.35-22.39,48.54-44.94,72.9-67.32,17.74-16.31,35.73-32.36,53.39-48.76,5-4.67,10.15-4.88,15.22-1.32,18.74,13.14,35,28.83,47.7,48,3.33,5,2.68,9.77-1.64,14.45-24.53,26.57-48.84,53.34-73.31,80q-65.15,70.89-130.37,141.7-66.32,72.12-132.57,144.27-38.7,42.09-77.44,84.15C827.89,2438.26,824.11,2441.53,818.28,2440.64Z" transform="translate(-726.79 -561.9)"/><path d="M1477.71,1877.44c-142.15-114.2-226.36-227.92-253.17-396.77-1.63-10.29-11.79-24.38,1.55-31.71,11.32-6.23,18.07,8.07,24.9,14.63,105,100.86,232.65,155.72,373.21,184.18,16.94,3.43,34.65,3,52,4.47,10.23.86,23-.89,26.77,11.28,3.15,10.27-7.31,16.17-14.06,22.21-43.84,39.2-92.91,71.34-148.4,89.67-31.57,10.43-43.76,24.86-39.79,56.92,1.82,14.73,19.75,54.47,45.67,90.76C1539.38,1923.08,1500,1893.1,1477.71,1877.44Z" transform="translate(-726.79 -561.9)"/><path d="M1840.8,1505q-8.6,16.63-18.24,32.83c-6.13,10.34-12.88,19.18-21.72,24.09-8,4.44-17.63,5.68-30.07,1.93-127.39-17.15-248.72-54.43-358.61-124.35q-33.12-21.08-63.77-45-24.41-19.08-47.17-40c59.28-39.41,131.06-62.12,209-61.61q17.94.12,35.45,1.93c55,27.15,113.31,48.5,174.21,65.49A368.71,368.71,0,0,1,1840.8,1505Z" transform="translate(-726.79 -561.9)"/></svg>